<mxfile host="app.diagrams.net" modified="2023-04-20T07:32:51.096Z" agent="Mozilla/5.0 (Macintosh; Intel Mac OS X 10_15_7) AppleWebKit/537.36 (KHTML, like Gecko) Chrome/111.0.0.0 Safari/537.36" etag="zyzdPW502-36HwOrW4n9" version="21.2.1" type="github">
  <diagram name="第 1 页" id="5ASMXxEojJklhWErasPH">
    <mxGraphModel dx="1242" dy="1964" grid="1" gridSize="10" guides="1" tooltips="1" connect="1" arrows="1" fold="1" page="1" pageScale="1" pageWidth="827" pageHeight="1169" math="0" shadow="0">
      <root>
        <mxCell id="0" />
        <mxCell id="1" parent="0" />
        <mxCell id="coeibAs1IjADIGH8simH-1" value="本地静态资源" style="rounded=0;whiteSpace=wrap;html=1;fillColor=#d5e8d4;strokeColor=#82b366;" vertex="1" parent="1">
          <mxGeometry x="400" y="70" width="160" height="30" as="geometry" />
        </mxCell>
        <mxCell id="coeibAs1IjADIGH8simH-2" value="远端静态资源" style="rounded=0;whiteSpace=wrap;html=1;" vertex="1" parent="1">
          <mxGeometry x="330" y="-30" width="400" height="40" as="geometry" />
        </mxCell>
        <mxCell id="coeibAs1IjADIGH8simH-4" style="rounded=0;orthogonalLoop=1;jettySize=auto;html=1;exitX=1;exitY=0.5;exitDx=0;exitDy=0;entryX=0;entryY=0.5;entryDx=0;entryDy=0;" edge="1" parent="1" source="coeibAs1IjADIGH8simH-3" target="coeibAs1IjADIGH8simH-1">
          <mxGeometry relative="1" as="geometry" />
        </mxCell>
        <mxCell id="coeibAs1IjADIGH8simH-28" style="rounded=0;orthogonalLoop=1;jettySize=auto;html=1;exitX=1;exitY=0.5;exitDx=0;exitDy=0;entryX=0;entryY=0.5;entryDx=0;entryDy=0;" edge="1" parent="1" source="coeibAs1IjADIGH8simH-3" target="coeibAs1IjADIGH8simH-13">
          <mxGeometry relative="1" as="geometry" />
        </mxCell>
        <mxCell id="coeibAs1IjADIGH8simH-3" value="下载器" style="rounded=1;whiteSpace=wrap;html=1;" vertex="1" parent="1">
          <mxGeometry x="140" y="145" width="120" height="60" as="geometry" />
        </mxCell>
        <mxCell id="coeibAs1IjADIGH8simH-12" value="webview" style="rounded=0;whiteSpace=wrap;html=1;fillColor=#fff2cc;strokeColor=#d6b656;" vertex="1" parent="1">
          <mxGeometry x="400" y="160" width="250" height="30" as="geometry" />
        </mxCell>
        <mxCell id="coeibAs1IjADIGH8simH-13" value="本地动态资源" style="rounded=0;whiteSpace=wrap;html=1;fillColor=#d5e8d4;strokeColor=#82b366;" vertex="1" parent="1">
          <mxGeometry x="400" y="248" width="250" height="32" as="geometry" />
        </mxCell>
        <mxCell id="coeibAs1IjADIGH8simH-14" value="远端动态资源" style="rounded=0;whiteSpace=wrap;html=1;" vertex="1" parent="1">
          <mxGeometry x="400" y="410" width="250" height="32" as="geometry" />
        </mxCell>
        <mxCell id="coeibAs1IjADIGH8simH-15" value="localcache" style="rounded=0;whiteSpace=wrap;html=1;dashed=1;" vertex="1" parent="1">
          <mxGeometry x="400" y="330" width="250" height="32" as="geometry" />
        </mxCell>
        <mxCell id="coeibAs1IjADIGH8simH-16" value="" style="endArrow=classic;html=1;rounded=0;entryX=0.164;entryY=0.031;entryDx=0;entryDy=0;entryPerimeter=0;" edge="1" parent="1" target="coeibAs1IjADIGH8simH-13">
          <mxGeometry width="50" height="50" relative="1" as="geometry">
            <mxPoint x="441" y="190" as="sourcePoint" />
            <mxPoint x="220" y="190" as="targetPoint" />
          </mxGeometry>
        </mxCell>
        <mxCell id="coeibAs1IjADIGH8simH-17" value="request" style="edgeLabel;html=1;align=center;verticalAlign=middle;resizable=0;points=[];" vertex="1" connectable="0" parent="coeibAs1IjADIGH8simH-16">
          <mxGeometry x="0.0171" y="3" relative="1" as="geometry">
            <mxPoint as="offset" />
          </mxGeometry>
        </mxCell>
        <mxCell id="coeibAs1IjADIGH8simH-18" value="" style="endArrow=classic;html=1;rounded=0;" edge="1" parent="1">
          <mxGeometry width="50" height="50" relative="1" as="geometry">
            <mxPoint x="440" y="280" as="sourcePoint" />
            <mxPoint x="440" y="330" as="targetPoint" />
          </mxGeometry>
        </mxCell>
        <mxCell id="coeibAs1IjADIGH8simH-19" value="request" style="edgeLabel;html=1;align=center;verticalAlign=middle;resizable=0;points=[];" vertex="1" connectable="0" parent="coeibAs1IjADIGH8simH-18">
          <mxGeometry x="0.0171" y="3" relative="1" as="geometry">
            <mxPoint as="offset" />
          </mxGeometry>
        </mxCell>
        <mxCell id="coeibAs1IjADIGH8simH-20" value="" style="endArrow=classic;html=1;rounded=0;" edge="1" parent="1">
          <mxGeometry width="50" height="50" relative="1" as="geometry">
            <mxPoint x="440" y="360" as="sourcePoint" />
            <mxPoint x="440" y="410" as="targetPoint" />
          </mxGeometry>
        </mxCell>
        <mxCell id="coeibAs1IjADIGH8simH-21" value="request" style="edgeLabel;html=1;align=center;verticalAlign=middle;resizable=0;points=[];" vertex="1" connectable="0" parent="coeibAs1IjADIGH8simH-20">
          <mxGeometry x="0.0171" y="3" relative="1" as="geometry">
            <mxPoint as="offset" />
          </mxGeometry>
        </mxCell>
        <mxCell id="coeibAs1IjADIGH8simH-22" value="" style="endArrow=classic;html=1;rounded=0;entryX=0.812;entryY=1;entryDx=0;entryDy=0;entryPerimeter=0;exitX=0.812;exitY=0;exitDx=0;exitDy=0;exitPerimeter=0;" edge="1" parent="1" source="coeibAs1IjADIGH8simH-13" target="coeibAs1IjADIGH8simH-12">
          <mxGeometry width="50" height="50" relative="1" as="geometry">
            <mxPoint x="549.5" y="210" as="sourcePoint" />
            <mxPoint x="549.5" y="269" as="targetPoint" />
          </mxGeometry>
        </mxCell>
        <mxCell id="coeibAs1IjADIGH8simH-23" value="response" style="edgeLabel;html=1;align=center;verticalAlign=middle;resizable=0;points=[];" vertex="1" connectable="0" parent="coeibAs1IjADIGH8simH-22">
          <mxGeometry x="0.0171" y="3" relative="1" as="geometry">
            <mxPoint as="offset" />
          </mxGeometry>
        </mxCell>
        <mxCell id="coeibAs1IjADIGH8simH-24" value="" style="endArrow=classic;html=1;rounded=0;entryX=0.812;entryY=1;entryDx=0;entryDy=0;entryPerimeter=0;" edge="1" parent="1">
          <mxGeometry width="50" height="50" relative="1" as="geometry">
            <mxPoint x="600" y="330" as="sourcePoint" />
            <mxPoint x="600" y="278" as="targetPoint" />
          </mxGeometry>
        </mxCell>
        <mxCell id="coeibAs1IjADIGH8simH-25" value="response" style="edgeLabel;html=1;align=center;verticalAlign=middle;resizable=0;points=[];" vertex="1" connectable="0" parent="coeibAs1IjADIGH8simH-24">
          <mxGeometry x="0.0171" y="3" relative="1" as="geometry">
            <mxPoint as="offset" />
          </mxGeometry>
        </mxCell>
        <mxCell id="coeibAs1IjADIGH8simH-26" value="" style="endArrow=classic;html=1;rounded=0;entryX=0.812;entryY=1;entryDx=0;entryDy=0;entryPerimeter=0;" edge="1" parent="1">
          <mxGeometry width="50" height="50" relative="1" as="geometry">
            <mxPoint x="600" y="410" as="sourcePoint" />
            <mxPoint x="600" y="362" as="targetPoint" />
          </mxGeometry>
        </mxCell>
        <mxCell id="coeibAs1IjADIGH8simH-27" value="response" style="edgeLabel;html=1;align=center;verticalAlign=middle;resizable=0;points=[];" vertex="1" connectable="0" parent="coeibAs1IjADIGH8simH-26">
          <mxGeometry x="0.0171" y="3" relative="1" as="geometry">
            <mxPoint as="offset" />
          </mxGeometry>
        </mxCell>
        <mxCell id="coeibAs1IjADIGH8simH-29" value="" style="endArrow=classic;html=1;rounded=0;entryX=0.812;entryY=1;entryDx=0;entryDy=0;entryPerimeter=0;exitX=0.812;exitY=0;exitDx=0;exitDy=0;exitPerimeter=0;" edge="1" parent="1">
          <mxGeometry width="50" height="50" relative="1" as="geometry">
            <mxPoint x="440" y="160" as="sourcePoint" />
            <mxPoint x="440" y="102" as="targetPoint" />
          </mxGeometry>
        </mxCell>
        <mxCell id="coeibAs1IjADIGH8simH-30" value="loadurl" style="edgeLabel;html=1;align=center;verticalAlign=middle;resizable=0;points=[];" vertex="1" connectable="0" parent="coeibAs1IjADIGH8simH-29">
          <mxGeometry x="0.0171" y="3" relative="1" as="geometry">
            <mxPoint as="offset" />
          </mxGeometry>
        </mxCell>
        <mxCell id="coeibAs1IjADIGH8simH-31" value="" style="endArrow=classic;html=1;rounded=0;entryX=0.812;entryY=1;entryDx=0;entryDy=0;entryPerimeter=0;exitX=0.812;exitY=0;exitDx=0;exitDy=0;exitPerimeter=0;" edge="1" parent="1">
          <mxGeometry width="50" height="50" relative="1" as="geometry">
            <mxPoint x="440" y="70" as="sourcePoint" />
            <mxPoint x="440" y="12" as="targetPoint" />
          </mxGeometry>
        </mxCell>
        <mxCell id="coeibAs1IjADIGH8simH-32" value="loadurl" style="edgeLabel;html=1;align=center;verticalAlign=middle;resizable=0;points=[];" vertex="1" connectable="0" parent="coeibAs1IjADIGH8simH-31">
          <mxGeometry x="0.0171" y="3" relative="1" as="geometry">
            <mxPoint as="offset" />
          </mxGeometry>
        </mxCell>
        <mxCell id="coeibAs1IjADIGH8simH-33" value="" style="endArrow=classic;html=1;rounded=0;entryX=0.804;entryY=-0.1;entryDx=0;entryDy=0;entryPerimeter=0;" edge="1" parent="1" target="coeibAs1IjADIGH8simH-12">
          <mxGeometry width="50" height="50" relative="1" as="geometry">
            <mxPoint x="600" y="11" as="sourcePoint" />
            <mxPoint x="600" y="70" as="targetPoint" />
          </mxGeometry>
        </mxCell>
        <mxCell id="coeibAs1IjADIGH8simH-34" value="response" style="edgeLabel;html=1;align=center;verticalAlign=middle;resizable=0;points=[];" vertex="1" connectable="0" parent="coeibAs1IjADIGH8simH-33">
          <mxGeometry x="0.0171" y="3" relative="1" as="geometry">
            <mxPoint as="offset" />
          </mxGeometry>
        </mxCell>
        <mxCell id="coeibAs1IjADIGH8simH-35" value="" style="endArrow=classic;html=1;rounded=0;entryX=0.164;entryY=0.031;entryDx=0;entryDy=0;entryPerimeter=0;" edge="1" parent="1">
          <mxGeometry width="50" height="50" relative="1" as="geometry">
            <mxPoint x="540" y="100" as="sourcePoint" />
            <mxPoint x="540" y="159" as="targetPoint" />
          </mxGeometry>
        </mxCell>
        <mxCell id="coeibAs1IjADIGH8simH-36" value="response" style="edgeLabel;html=1;align=center;verticalAlign=middle;resizable=0;points=[];" vertex="1" connectable="0" parent="coeibAs1IjADIGH8simH-35">
          <mxGeometry x="0.0171" y="3" relative="1" as="geometry">
            <mxPoint as="offset" />
          </mxGeometry>
        </mxCell>
      </root>
    </mxGraphModel>
  </diagram>
</mxfile>
